<?xml version="1.0" encoding="UTF-8" standalone="no"?>
<!DOCTYPE svg PUBLIC "-//W3C//DTD SVG 1.1//EN"
 "http://www.w3.org/Graphics/SVG/1.1/DTD/svg11.dtd">
<!-- Generated by graphviz version 2.43.0 (0)
 -->
<!-- Title: %3 Pages: 1 -->
<svg width="2173pt" height="1418pt"
 viewBox="0.00 0.00 2173.12 1418.28" xmlns="http://www.w3.org/2000/svg" xmlns:xlink="http://www.w3.org/1999/xlink">
<g id="graph0" class="graph" transform="scale(1 1) rotate(0) translate(4 1414.28)">
<title>%3</title>
<polygon fill="white" stroke="transparent" points="-4,4 -4,-1414.28 2169.12,-1414.28 2169.12,4 -4,4"/>
<!-- network_automatic&#45;umbrella_default -->
<g id="node1" class="node">
<title>network_automatic&#45;umbrella_default</title>
<polygon fill="#ff7f00" stroke="black" points="573.1,-683.78 573.1,-729.78 786.1,-729.78 786.1,-683.78 573.1,-683.78"/>
<text text-anchor="middle" x="679.6" y="-714.58" font-family="Times,serif" font-size="14.00">172.18.0.0/16</text>
<polyline fill="none" stroke="black" points="573.1,-706.78 786.1,-706.78 "/>
<text text-anchor="middle" x="679.6" y="-691.58" font-family="Times,serif" font-size="14.00">automatic&#45;umbrella_default</text>
</g>
<!-- network_automatic&#45;umbrella_elastic&#45;jaeger -->
<g id="node2" class="node">
<title>network_automatic&#45;umbrella_elastic&#45;jaeger</title>
<polygon fill="#6a3d9a" stroke="black" points="1692.09,-498.81 1692.09,-544.81 1951.09,-544.81 1951.09,-498.81 1692.09,-498.81"/>
<text text-anchor="middle" x="1821.59" y="-529.61" font-family="Times,serif" font-size="14.00">172.19.0.0/16</text>
<polyline fill="none" stroke="black" points="1692.09,-521.81 1951.09,-521.81 "/>
<text text-anchor="middle" x="1821.59" y="-506.61" font-family="Times,serif" font-size="14.00">automatic&#45;umbrella_elastic&#45;jaeger</text>
</g>
<!-- network_bridge -->
<g id="node3" class="node">
<title>network_bridge</title>
<polygon fill="#b15928" stroke="black" points="1199,-872.5 1199,-918.5 1315,-918.5 1315,-872.5 1199,-872.5"/>
<text text-anchor="middle" x="1257" y="-903.3" font-family="Times,serif" font-size="14.00">172.17.0.0/16</text>
<polyline fill="none" stroke="black" points="1199,-895.5 1315,-895.5 "/>
<text text-anchor="middle" x="1257" y="-880.3" font-family="Times,serif" font-size="14.00">bridge</text>
</g>
<!-- network_host -->
<g id="node4" class="node">
<title>network_host</title>
<polygon fill="#808080" stroke="black" points="1090,-436.5 1090,-482.5 1156,-482.5 1156,-436.5 1090,-436.5"/>
<text text-anchor="middle" x="1123" y="-467.3" font-family="Times,serif" font-size="14.00">0.0.0.0</text>
<polyline fill="none" stroke="black" points="1090,-459.5 1156,-459.5 "/>
<text text-anchor="middle" x="1123" y="-444.3" font-family="Times,serif" font-size="14.00">host</text>
</g>
<!-- container_fded80455576ccaa1613f385d6a17b117f143b4d73e850cb0e5e685d9ab4f93e -->
<g id="node5" class="node">
<title>container_fded80455576ccaa1613f385d6a17b117f143b4d73e850cb0e5e685d9ab4f93e</title>
<polygon fill="#ff9999" stroke="black" points="993.28,-654.42 993.28,-723.42 1233.28,-723.42 1233.28,-654.42 993.28,-654.42"/>
<text text-anchor="middle" x="1113.28" y="-708.22" font-family="Times,serif" font-size="14.00">automatic&#45;umbrella_frontend_1</text>
<polyline fill="none" stroke="black" points="993.28,-700.42 1233.28,-700.42 "/>
<text text-anchor="middle" x="1113.28" y="-685.22" font-family="Times,serif" font-size="14.00">frontend</text>
<polyline fill="none" stroke="black" points="993.28,-677.42 1233.28,-677.42 "/>
<text text-anchor="middle" x="1113.28" y="-662.22" font-family="Times,serif" font-size="14.00">172.18.0.10</text>
</g>
<!-- container_fded80455576ccaa1613f385d6a17b117f143b4d73e850cb0e5e685d9ab4f93e&#45;&#45;network_automatic&#45;umbrella_default -->
<g id="edge1" class="edge">
<title>container_fded80455576ccaa1613f385d6a17b117f143b4d73e850cb0e5e685d9ab4f93e:d3508389d388cd226e159275d2e5ae2f12cf68040b34aeaedbe7ed21a00c8c60&#45;&#45;network_automatic&#45;umbrella_default</title>
<path fill="none" stroke="#ff7f00" d="M993.28,-665.92C993.28,-665.92 877.17,-681.04 786.24,-692.89"/>
</g>
<!-- container_ec8983b2f90f8c7e4483967f8c1c8c01ccc3252454ec02e4f13689ec1b0f3101 -->
<g id="node6" class="node">
<title>container_ec8983b2f90f8c7e4483967f8c1c8c01ccc3252454ec02e4f13689ec1b0f3101</title>
<polygon fill="#ff9999" stroke="black" points="902.61,-1276.86 902.61,-1345.86 1102.61,-1345.86 1102.61,-1276.86 902.61,-1276.86"/>
<text text-anchor="middle" x="1002.61" y="-1330.66" font-family="Times,serif" font-size="14.00">automatic&#45;umbrella_api_1</text>
<polyline fill="none" stroke="black" points="902.61,-1322.86 1102.61,-1322.86 "/>
<text text-anchor="middle" x="1002.61" y="-1307.66" font-family="Times,serif" font-size="14.00">api</text>
<polyline fill="none" stroke="black" points="902.61,-1299.86 1102.61,-1299.86 "/>
<text text-anchor="middle" x="1002.61" y="-1284.66" font-family="Times,serif" font-size="14.00">172.18.0.12</text>
</g>
<!-- container_ec8983b2f90f8c7e4483967f8c1c8c01ccc3252454ec02e4f13689ec1b0f3101&#45;&#45;network_automatic&#45;umbrella_default -->
<g id="edge2" class="edge">
<title>container_ec8983b2f90f8c7e4483967f8c1c8c01ccc3252454ec02e4f13689ec1b0f3101:c45a1d6d96acc386ee37f881f79d7a2d1c1686989eb0d40f285504c943752dd5&#45;&#45;network_automatic&#45;umbrella_default</title>
<path fill="none" stroke="#ff7f00" d="M902.59,-1288.45C902.59,-1288.45 900.45,-1280.3 899.41,-1273.66 880.18,-1150.89 896.79,-1117.17 871.89,-995.42 847.39,-875.62 878.75,-816.36 789.3,-732.98 788.16,-731.91 786.98,-730.89 785.76,-729.9"/>
</g>
<!-- container_a99f7049621bd801ad5be4735d3c42970eda411d44355c53aa9b916b9570afee -->
<g id="node7" class="node">
<title>container_a99f7049621bd801ad5be4735d3c42970eda411d44355c53aa9b916b9570afee</title>
<polygon fill="#ff9999" stroke="black" points="528.59,-1340.78 528.59,-1409.78 763.59,-1409.78 763.59,-1340.78 528.59,-1340.78"/>
<text text-anchor="middle" x="646.09" y="-1394.58" font-family="Times,serif" font-size="14.00">automatic&#45;umbrella_monitor_1</text>
<polyline fill="none" stroke="black" points="528.59,-1386.78 763.59,-1386.78 "/>
<text text-anchor="middle" x="646.09" y="-1371.58" font-family="Times,serif" font-size="14.00">monitor</text>
<polyline fill="none" stroke="black" points="528.59,-1363.78 763.59,-1363.78 "/>
<text text-anchor="middle" x="646.09" y="-1348.58" font-family="Times,serif" font-size="14.00">172.18.0.9</text>
</g>
<!-- container_a99f7049621bd801ad5be4735d3c42970eda411d44355c53aa9b916b9570afee&#45;&#45;network_automatic&#45;umbrella_default -->
<g id="edge3" class="edge">
<title>container_a99f7049621bd801ad5be4735d3c42970eda411d44355c53aa9b916b9570afee:ece467ff03bdd7df19780c6fc26844aa8f3316b6465d8fee0e18de15aa07cfe5&#45;&#45;network_automatic&#45;umbrella_default</title>
<path fill="none" stroke="#ff7f00" d="M646.09,-1340.28C646.09,-1340.28 641.82,-1148.46 650.49,-995.42 656.11,-896.36 670.32,-778.83 676.57,-729.92"/>
</g>
<!-- container_270f27b2c756bfc3cec8388c51ece93f06d3914adad4e04151f0f307b5e5287a -->
<g id="node8" class="node">
<title>container_270f27b2c756bfc3cec8388c51ece93f06d3914adad4e04151f0f307b5e5287a</title>
<polygon fill="#ff9999" stroke="black" points="1109.78,-989.61 1109.78,-1058.61 1336.78,-1058.61 1336.78,-989.61 1109.78,-989.61"/>
<text text-anchor="middle" x="1223.28" y="-1043.41" font-family="Times,serif" font-size="14.00">automatic&#45;umbrella_scripts_1</text>
<polyline fill="none" stroke="black" points="1109.78,-1035.61 1336.78,-1035.61 "/>
<text text-anchor="middle" x="1223.28" y="-1020.41" font-family="Times,serif" font-size="14.00">scripts</text>
<polyline fill="none" stroke="black" points="1109.78,-1012.61 1336.78,-1012.61 "/>
<text text-anchor="middle" x="1223.28" y="-997.41" font-family="Times,serif" font-size="14.00">172.18.0.15</text>
</g>
<!-- container_270f27b2c756bfc3cec8388c51ece93f06d3914adad4e04151f0f307b5e5287a&#45;&#45;network_automatic&#45;umbrella_default -->
<g id="edge4" class="edge">
<title>container_270f27b2c756bfc3cec8388c51ece93f06d3914adad4e04151f0f307b5e5287a:884dcabb544c09ab85e65d61a5982c053ae718c5fda68c0305aa17ea4f2652c4&#45;&#45;network_automatic&#45;umbrella_default</title>
<path fill="none" stroke="#ff7f00" d="M1109.28,-1001.11C1109.28,-1001.11 955.05,-816.36 789.3,-732.98 787.12,-731.88 784.88,-730.83 782.61,-729.82"/>
</g>
<!-- container_717da7152a73af5d1f216b1ac9654714bf2bae6ee37c3d39a7e49bf708705ccb -->
<g id="node9" class="node">
<title>container_717da7152a73af5d1f216b1ac9654714bf2bae6ee37c3d39a7e49bf708705ccb</title>
<polygon fill="#ff9999" stroke="black" points="228.63,-1179.9 228.63,-1248.9 451.63,-1248.9 451.63,-1179.9 228.63,-1179.9"/>
<text text-anchor="middle" x="340.13" y="-1233.7" font-family="Times,serif" font-size="14.00">automatic&#45;umbrella_flower_1</text>
<polyline fill="none" stroke="black" points="228.63,-1225.9 451.63,-1225.9 "/>
<text text-anchor="middle" x="340.13" y="-1210.7" font-family="Times,serif" font-size="14.00">flower</text>
<polyline fill="none" stroke="black" points="228.63,-1202.9 451.63,-1202.9 "/>
<text text-anchor="middle" x="340.13" y="-1187.7" font-family="Times,serif" font-size="14.00">172.18.0.3</text>
</g>
<!-- container_717da7152a73af5d1f216b1ac9654714bf2bae6ee37c3d39a7e49bf708705ccb&#45;&#45;network_automatic&#45;umbrella_default -->
<g id="edge5" class="edge">
<title>container_717da7152a73af5d1f216b1ac9654714bf2bae6ee37c3d39a7e49bf708705ccb:aed5b1dc52a7ea1746ee83ce9b1fab74ba108307daf59b0a969657fa71fae79f&#45;&#45;network_automatic&#45;umbrella_default</title>
<path fill="none" stroke="#ff7f00" d="M452.13,-1191.4C452.13,-1191.4 623.58,-826.14 668.78,-729.83"/>
</g>
<!-- container_a01bfa73e55b913d22d768116ff13031327784b3b6504c5dcc1eec8ae13f2189 -->
<g id="node10" class="node">
<title>container_a01bfa73e55b913d22d768116ff13031327784b3b6504c5dcc1eec8ae13f2189</title>
<polygon fill="#ff9999" stroke="black" points="2.22,-974.06 2.22,-1043.06 199.22,-1043.06 199.22,-974.06 2.22,-974.06"/>
<text text-anchor="middle" x="100.72" y="-1027.86" font-family="Times,serif" font-size="14.00">automatic&#45;umbrella_db_1</text>
<polyline fill="none" stroke="black" points="2.22,-1020.06 199.22,-1020.06 "/>
<text text-anchor="middle" x="100.72" y="-1004.86" font-family="Times,serif" font-size="14.00">db</text>
<polyline fill="none" stroke="black" points="2.22,-997.06 199.22,-997.06 "/>
<text text-anchor="middle" x="100.72" y="-981.86" font-family="Times,serif" font-size="14.00">172.18.0.13</text>
</g>
<!-- container_a01bfa73e55b913d22d768116ff13031327784b3b6504c5dcc1eec8ae13f2189&#45;&#45;network_automatic&#45;umbrella_default -->
<g id="edge6" class="edge">
<title>container_a01bfa73e55b913d22d768116ff13031327784b3b6504c5dcc1eec8ae13f2189:f62a0fd3a4008d41f6778f714f4b08547fc861246cf153df092c08e23192de3b&#45;&#45;network_automatic&#45;umbrella_default</title>
<path fill="none" stroke="#ff7f00" d="M199.72,-985.56C199.72,-985.56 524.95,-796.62 639.92,-729.83"/>
</g>
<!-- container_0e2adc851bcb560db4f7fc7d4b20135c8e011c30020444a04e52d3c49ce80e3d -->
<g id="node11" class="node">
<title>container_0e2adc851bcb560db4f7fc7d4b20135c8e011c30020444a04e52d3c49ce80e3d</title>
<polygon fill="#ff9999" stroke="black" points="653.69,-998.62 653.69,-1067.62 868.69,-1067.62 868.69,-998.62 653.69,-998.62"/>
<text text-anchor="middle" x="761.19" y="-1052.42" font-family="Times,serif" font-size="14.00">automatic&#45;umbrella_redis_1</text>
<polyline fill="none" stroke="black" points="653.69,-1044.62 868.69,-1044.62 "/>
<text text-anchor="middle" x="761.19" y="-1029.42" font-family="Times,serif" font-size="14.00">redis</text>
<polyline fill="none" stroke="black" points="653.69,-1021.62 868.69,-1021.62 "/>
<text text-anchor="middle" x="761.19" y="-1006.42" font-family="Times,serif" font-size="14.00">172.18.0.4</text>
</g>
<!-- container_0e2adc851bcb560db4f7fc7d4b20135c8e011c30020444a04e52d3c49ce80e3d&#45;&#45;network_automatic&#45;umbrella_default -->
<g id="edge7" class="edge">
<title>container_0e2adc851bcb560db4f7fc7d4b20135c8e011c30020444a04e52d3c49ce80e3d:71fca7628aa58ed7bd8c5d08760141cd2ce298de28c8d0d4693755cced03bbe2&#45;&#45;network_automatic&#45;umbrella_default</title>
<path fill="none" stroke="#ff7f00" d="M761.19,-998.12C761.19,-998.12 705.5,-799.26 686.14,-730.13"/>
</g>
<!-- container_60771740e55abd39ce619bc106062310a02c5de03be9bdfa7b6e72d8be57744f -->
<g id="node12" class="node">
<title>container_60771740e55abd39ce619bc106062310a02c5de03be9bdfa7b6e72d8be57744f</title>
<polygon fill="#ff9999" stroke="black" points="0,-668.35 0,-737.35 233,-737.35 233,-668.35 0,-668.35"/>
<text text-anchor="middle" x="116.5" y="-722.15" font-family="Times,serif" font-size="14.00">automatic&#45;umbrella_storage_1</text>
<polyline fill="none" stroke="black" points="0,-714.35 233,-714.35 "/>
<text text-anchor="middle" x="116.5" y="-699.15" font-family="Times,serif" font-size="14.00">storage</text>
<polyline fill="none" stroke="black" points="0,-691.35 233,-691.35 "/>
<text text-anchor="middle" x="116.5" y="-676.15" font-family="Times,serif" font-size="14.00">172.18.0.7</text>
</g>
<!-- container_60771740e55abd39ce619bc106062310a02c5de03be9bdfa7b6e72d8be57744f&#45;&#45;network_automatic&#45;umbrella_default -->
<g id="edge8" class="edge">
<title>container_60771740e55abd39ce619bc106062310a02c5de03be9bdfa7b6e72d8be57744f:0e9e882e3d3ca9de8678dba3e150982e293a50e2453bccf5908e7037fa6a2e14&#45;&#45;network_automatic&#45;umbrella_default</title>
<path fill="none" stroke="#ff7f00" d="M233.5,-679.85C233.5,-679.85 441.07,-692.38 573.03,-700.35"/>
</g>
<!-- container_20104966821b866d831976eafc82022ce43419a9a3178fca7fb220bdd7cac22c -->
<g id="node13" class="node">
<title>container_20104966821b866d831976eafc82022ce43419a9a3178fca7fb220bdd7cac22c</title>
<polygon fill="#ff9999" stroke="black" points="483.91,-0.5 483.91,-69.5 708.91,-69.5 708.91,-0.5 483.91,-0.5"/>
<text text-anchor="middle" x="596.41" y="-54.3" font-family="Times,serif" font-size="14.00">automatic&#45;umbrella_pinger_1</text>
<polyline fill="none" stroke="black" points="483.91,-46.5 708.91,-46.5 "/>
<text text-anchor="middle" x="596.41" y="-31.3" font-family="Times,serif" font-size="14.00">pinger</text>
<polyline fill="none" stroke="black" points="483.91,-23.5 708.91,-23.5 "/>
<text text-anchor="middle" x="596.41" y="-8.3" font-family="Times,serif" font-size="14.00">172.18.0.11</text>
</g>
<!-- container_20104966821b866d831976eafc82022ce43419a9a3178fca7fb220bdd7cac22c&#45;&#45;network_automatic&#45;umbrella_default -->
<g id="edge9" class="edge">
<title>container_20104966821b866d831976eafc82022ce43419a9a3178fca7fb220bdd7cac22c:33ffaec27397d0175fe486829e3dd9d6750d90dc701b75f082a9a36c2ccb40df&#45;&#45;network_automatic&#45;umbrella_default</title>
<path fill="none" stroke="#ff7f00" d="M709.41,-12C709.41,-12 837.55,-156.38 875.86,-298.62 884.57,-330.98 880.45,-340.83 875.86,-374.02 856.44,-514.26 891.42,-582.52 789.3,-680.58 788.17,-681.67 787.01,-682.71 785.81,-683.71"/>
</g>
<!-- container_33cf36047ec6a5cf079cb6baa7b7ada944343adc496825e94b422e29429b412c -->
<g id="node14" class="node">
<title>container_33cf36047ec6a5cf079cb6baa7b7ada944343adc496825e94b422e29429b412c</title>
<polygon fill="#ff9999" stroke="black" points="115.29,-125.21 115.29,-194.21 360.29,-194.21 360.29,-125.21 115.29,-125.21"/>
<text text-anchor="middle" x="237.79" y="-179.01" font-family="Times,serif" font-size="14.00">automatic&#45;umbrella_rabbitmq_1</text>
<polyline fill="none" stroke="black" points="115.29,-171.21 360.29,-171.21 "/>
<text text-anchor="middle" x="237.79" y="-156.01" font-family="Times,serif" font-size="14.00">rabbitmq</text>
<polyline fill="none" stroke="black" points="115.29,-148.21 360.29,-148.21 "/>
<text text-anchor="middle" x="237.79" y="-133.01" font-family="Times,serif" font-size="14.00">172.18.0.8</text>
</g>
<!-- container_33cf36047ec6a5cf079cb6baa7b7ada944343adc496825e94b422e29429b412c&#45;&#45;network_automatic&#45;umbrella_default -->
<g id="edge10" class="edge">
<title>container_33cf36047ec6a5cf079cb6baa7b7ada944343adc496825e94b422e29429b412c:7836da16aae85f16cd9c96397b6cfa4692cec6e680abc33e07a121a2a09cdb46&#45;&#45;network_automatic&#45;umbrella_default</title>
<path fill="none" stroke="#ff7f00" d="M360.79,-136.71C360.79,-136.71 607.07,-577.08 666.71,-683.73"/>
</g>
<!-- container_dbaa72f86ec01741387a9946d9841674c103b68374611b3516d8856464b25ae0 -->
<g id="node15" class="node">
<title>container_dbaa72f86ec01741387a9946d9841674c103b68374611b3516d8856464b25ae0</title>
<polygon fill="#ff9999" stroke="black" points="156.23,-426.39 156.23,-495.39 405.23,-495.39 405.23,-426.39 156.23,-426.39"/>
<text text-anchor="middle" x="280.73" y="-480.19" font-family="Times,serif" font-size="14.00">automatic&#45;umbrella_calculator_1</text>
<polyline fill="none" stroke="black" points="156.23,-472.39 405.23,-472.39 "/>
<text text-anchor="middle" x="280.73" y="-457.19" font-family="Times,serif" font-size="14.00">calculator</text>
<polyline fill="none" stroke="black" points="156.23,-449.39 405.23,-449.39 "/>
<text text-anchor="middle" x="280.73" y="-434.19" font-family="Times,serif" font-size="14.00">172.18.0.5</text>
</g>
<!-- container_dbaa72f86ec01741387a9946d9841674c103b68374611b3516d8856464b25ae0&#45;&#45;network_automatic&#45;umbrella_default -->
<g id="edge11" class="edge">
<title>container_dbaa72f86ec01741387a9946d9841674c103b68374611b3516d8856464b25ae0:dcabb06ab8c5e58b9f41b96ca3d54d846aaff44a59c3a7b891ff981cd899f1f6&#45;&#45;network_automatic&#45;umbrella_default</title>
<path fill="none" stroke="#ff7f00" d="M405.73,-437.89C405.73,-437.89 589.14,-617.97 655.78,-683.39"/>
</g>
<!-- container_d83761099a9c87eb41c2bdd6b36d2871181f7ad51dd447e0884b7512d0a179fa -->
<g id="node16" class="node">
<title>container_d83761099a9c87eb41c2bdd6b36d2871181f7ad51dd447e0884b7512d0a179fa</title>
<polygon fill="#ff9999" stroke="black" points="659.66,-301.82 659.66,-370.82 872.66,-370.82 872.66,-301.82 659.66,-301.82"/>
<text text-anchor="middle" x="766.16" y="-355.62" font-family="Times,serif" font-size="14.00">automatic&#45;umbrella_hello_1</text>
<polyline fill="none" stroke="black" points="659.66,-347.82 872.66,-347.82 "/>
<text text-anchor="middle" x="766.16" y="-332.62" font-family="Times,serif" font-size="14.00">hello</text>
<polyline fill="none" stroke="black" points="659.66,-324.82 872.66,-324.82 "/>
<text text-anchor="middle" x="766.16" y="-309.62" font-family="Times,serif" font-size="14.00">172.18.0.6</text>
</g>
<!-- container_d83761099a9c87eb41c2bdd6b36d2871181f7ad51dd447e0884b7512d0a179fa&#45;&#45;network_automatic&#45;umbrella_default -->
<g id="edge12" class="edge">
<title>container_d83761099a9c87eb41c2bdd6b36d2871181f7ad51dd447e0884b7512d0a179fa:342ed1d1ed81127ec9597cfe3ddb5e8fd8284a02632eaedaf81f9152c98cd5a8&#45;&#45;network_automatic&#45;umbrella_default</title>
<path fill="none" stroke="#ff7f00" d="M659.14,-313.42C659.14,-313.42 656.12,-347.06 656.46,-374.02 657.92,-490.41 671.35,-629.17 677.06,-683.42"/>
</g>
<!-- container_4e9a228af09b84807486da8f79c7d77bebbc69519994c4beb9da37ca7459ea81 -->
<g id="node17" class="node">
<title>container_4e9a228af09b84807486da8f79c7d77bebbc69519994c4beb9da37ca7459ea81</title>
<polygon fill="#ff9999" stroke="black" points="1237.2,-445.12 1237.2,-514.12 1506.2,-514.12 1506.2,-445.12 1237.2,-445.12"/>
<text text-anchor="middle" x="1371.7" y="-498.92" font-family="Times,serif" font-size="14.00">automatic&#45;umbrella_jaeger&#45;agent_1</text>
<polyline fill="none" stroke="black" points="1237.2,-491.12 1506.2,-491.12 "/>
<text text-anchor="middle" x="1304.2" y="-475.92" font-family="Times,serif" font-size="14.00">jaeger&#45;agent</text>
<polyline fill="none" stroke="black" points="1237.2,-468.12 1371.2,-468.12 "/>
<text text-anchor="middle" x="1304.2" y="-452.92" font-family="Times,serif" font-size="14.00">172.18.0.2</text>
<polyline fill="none" stroke="black" points="1371.2,-445.12 1371.2,-491.12 "/>
<text text-anchor="middle" x="1438.7" y="-475.92" font-family="Times,serif" font-size="14.00">jaeger&#45;agent</text>
<polyline fill="none" stroke="black" points="1371.2,-468.12 1506.2,-468.12 "/>
<text text-anchor="middle" x="1438.7" y="-452.92" font-family="Times,serif" font-size="14.00">172.19.0.3</text>
</g>
<!-- container_4e9a228af09b84807486da8f79c7d77bebbc69519994c4beb9da37ca7459ea81&#45;&#45;network_automatic&#45;umbrella_default -->
<g id="edge13" class="edge">
<title>container_4e9a228af09b84807486da8f79c7d77bebbc69519994c4beb9da37ca7459ea81:110f858ee47df2405db853d26d79a9f134e7bafccd924282ec1d0bc5d2e16427&#45;&#45;network_automatic&#45;umbrella_default</title>
<path fill="none" stroke="#ff7f00" d="M1236.7,-456.62C1236.7,-456.62 998.23,-604.46 789.3,-680.58 786.36,-681.65 783.36,-682.69 780.32,-683.7"/>
</g>
<!-- container_4e9a228af09b84807486da8f79c7d77bebbc69519994c4beb9da37ca7459ea81&#45;&#45;network_automatic&#45;umbrella_elastic&#45;jaeger -->
<g id="edge14" class="edge">
<title>container_4e9a228af09b84807486da8f79c7d77bebbc69519994c4beb9da37ca7459ea81:28107b76b2be8bcb6d705e587935f958f08ac6414315f7c387a80e5e71382a1c&#45;&#45;network_automatic&#45;umbrella_elastic&#45;jaeger</title>
<path fill="none" stroke="#6a3d9a" d="M1506.7,-456.62C1506.7,-456.62 1607.78,-478.92 1688.89,-495.61 1693.95,-496.65 1699.11,-497.71 1704.33,-498.77"/>
</g>
<!-- container_30fa230e26ca8c70a3c41a6c691d2c82cf33f51cc7974ef16d3d6f8b535d78f8 -->
<g id="node18" class="node">
<title>container_30fa230e26ca8c70a3c41a6c691d2c82cf33f51cc7974ef16d3d6f8b535d78f8</title>
<polygon fill="#ff9999" stroke="black" points="927.48,-107.08 927.48,-176.08 1145.48,-176.08 1145.48,-107.08 927.48,-107.08"/>
<text text-anchor="middle" x="1036.48" y="-160.88" font-family="Times,serif" font-size="14.00">automatic&#45;umbrella_minio_1</text>
<polyline fill="none" stroke="black" points="927.48,-153.08 1145.48,-153.08 "/>
<text text-anchor="middle" x="1036.48" y="-137.88" font-family="Times,serif" font-size="14.00">minio</text>
<polyline fill="none" stroke="black" points="927.48,-130.08 1145.48,-130.08 "/>
<text text-anchor="middle" x="1036.48" y="-114.88" font-family="Times,serif" font-size="14.00">172.18.0.14</text>
</g>
<!-- container_30fa230e26ca8c70a3c41a6c691d2c82cf33f51cc7974ef16d3d6f8b535d78f8&#45;&#45;network_automatic&#45;umbrella_default -->
<g id="edge15" class="edge">
<title>container_30fa230e26ca8c70a3c41a6c691d2c82cf33f51cc7974ef16d3d6f8b535d78f8:19a19f5906c1f21934aa4e0b1aa77c9be89feee509171b2ed60fec4cb2b1475d&#45;&#45;network_automatic&#45;umbrella_default</title>
<path fill="none" stroke="#ff7f00" d="M927.48,-118.58C927.48,-118.58 882.07,-591.5 789.3,-680.58 788.17,-681.67 787.01,-682.71 785.81,-683.71"/>
</g>
<!-- container_f70c8e18df7a42b43a4cbf159ed27fe4a15b471a34025b9db4211f172e8d7b34 -->
<g id="node19" class="node">
<title>container_f70c8e18df7a42b43a4cbf159ed27fe4a15b471a34025b9db4211f172e8d7b34</title>
<polygon fill="#ff9999" stroke="black" points="1893.12,-814.75 1893.12,-883.75 2165.12,-883.75 2165.12,-814.75 1893.12,-814.75"/>
<text text-anchor="middle" x="2029.12" y="-868.55" font-family="Times,serif" font-size="14.00">automatic&#45;umbrella_elasticsearch_1</text>
<polyline fill="none" stroke="black" points="1893.12,-860.75 2165.12,-860.75 "/>
<text text-anchor="middle" x="2029.12" y="-845.55" font-family="Times,serif" font-size="14.00">elasticsearch</text>
<polyline fill="none" stroke="black" points="1893.12,-837.75 2165.12,-837.75 "/>
<text text-anchor="middle" x="2029.12" y="-822.55" font-family="Times,serif" font-size="14.00">172.19.0.2</text>
</g>
<!-- container_f70c8e18df7a42b43a4cbf159ed27fe4a15b471a34025b9db4211f172e8d7b34&#45;&#45;network_automatic&#45;umbrella_elastic&#45;jaeger -->
<g id="edge16" class="edge">
<title>container_f70c8e18df7a42b43a4cbf159ed27fe4a15b471a34025b9db4211f172e8d7b34:17e4e90ab6c01ffe88039e415582378063bde9479243d72bf6fdc8a213227b3b&#45;&#45;network_automatic&#45;umbrella_elastic&#45;jaeger</title>
<path fill="none" stroke="#6a3d9a" d="M1893.12,-826.25C1893.12,-826.25 1843.72,-615.99 1827.02,-544.94"/>
</g>
</g>
</svg>
