<?xml version="1.0" encoding="UTF-8" standalone="no"?>
<!DOCTYPE svg PUBLIC "-//W3C//DTD SVG 1.1//EN"
 "http://www.w3.org/Graphics/SVG/1.1/DTD/svg11.dtd">
<!-- Generated by graphviz version 2.43.0 (0)
 -->
<!-- Title: %3 Pages: 1 -->
<svg width="2534pt" height="1220pt"
 viewBox="0.00 0.00 2534.15 1220.00" xmlns="http://www.w3.org/2000/svg" xmlns:xlink="http://www.w3.org/1999/xlink">
<g id="graph0" class="graph" transform="scale(1 1) rotate(0) translate(4 1216)">
<title>%3</title>
<polygon fill="white" stroke="transparent" points="-4,4 -4,-1216 2530.15,-1216 2530.15,4 -4,4"/>
<!-- network_automatic&#45;umbrella_default -->
<g id="node1" class="node">
<title>network_automatic&#45;umbrella_default</title>
<polygon fill="#1f78b4" stroke="black" points="623.68,-554.96 623.68,-600.96 836.68,-600.96 836.68,-554.96 623.68,-554.96"/>
<text text-anchor="middle" x="730.18" y="-585.76" font-family="Times,serif" font-size="14.00">172.18.0.0/16</text>
<polyline fill="none" stroke="black" points="623.68,-577.96 836.68,-577.96 "/>
<text text-anchor="middle" x="730.18" y="-562.76" font-family="Times,serif" font-size="14.00">automatic&#45;umbrella_default</text>
</g>
<!-- network_automatic&#45;umbrella_elastic&#45;jaeger -->
<g id="node2" class="node">
<title>network_automatic&#45;umbrella_elastic&#45;jaeger</title>
<polygon fill="#33a02c" stroke="black" points="1849.98,-561.62 1849.98,-607.62 2108.98,-607.62 2108.98,-561.62 1849.98,-561.62"/>
<text text-anchor="middle" x="1979.48" y="-592.42" font-family="Times,serif" font-size="14.00">172.19.0.0/16</text>
<polyline fill="none" stroke="black" points="1849.98,-584.62 2108.98,-584.62 "/>
<text text-anchor="middle" x="1979.48" y="-569.42" font-family="Times,serif" font-size="14.00">automatic&#45;umbrella_elastic&#45;jaeger</text>
</g>
<!-- network_bridge -->
<g id="node3" class="node">
<title>network_bridge</title>
<polygon fill="#e31a1c" stroke="black" points="1417,-763.5 1417,-809.5 1533,-809.5 1533,-763.5 1417,-763.5"/>
<text text-anchor="middle" x="1475" y="-794.3" font-family="Times,serif" font-size="14.00">172.17.0.0/16</text>
<polyline fill="none" stroke="black" points="1417,-786.5 1533,-786.5 "/>
<text text-anchor="middle" x="1475" y="-771.3" font-family="Times,serif" font-size="14.00">bridge</text>
</g>
<!-- network_host -->
<g id="node4" class="node">
<title>network_host</title>
<polygon fill="#808080" stroke="black" points="1417,-327.5 1417,-373.5 1483,-373.5 1483,-327.5 1417,-327.5"/>
<text text-anchor="middle" x="1450" y="-358.3" font-family="Times,serif" font-size="14.00">0.0.0.0</text>
<polyline fill="none" stroke="black" points="1417,-350.5 1483,-350.5 "/>
<text text-anchor="middle" x="1450" y="-335.3" font-family="Times,serif" font-size="14.00">host</text>
</g>
<!-- container_fcf93bd650a97b599d12e473e2dbc05ae05d27326bfb51c18e6eb4fdaaef583b -->
<g id="node5" class="node">
<title>container_fcf93bd650a97b599d12e473e2dbc05ae05d27326bfb51c18e6eb4fdaaef583b</title>
<polygon fill="#ff9999" stroke="black" points="1042.33,-850.02 1042.33,-919.02 1282.33,-919.02 1282.33,-850.02 1042.33,-850.02"/>
<text text-anchor="middle" x="1162.33" y="-903.82" font-family="Times,serif" font-size="14.00">automatic&#45;umbrella_frontend_1</text>
<polyline fill="none" stroke="black" points="1042.33,-896.02 1282.33,-896.02 "/>
<text text-anchor="middle" x="1162.33" y="-880.82" font-family="Times,serif" font-size="14.00">frontend</text>
<polyline fill="none" stroke="black" points="1042.33,-873.02 1282.33,-873.02 "/>
<text text-anchor="middle" x="1162.33" y="-857.82" font-family="Times,serif" font-size="14.00">172.18.0.14</text>
</g>
<!-- container_fcf93bd650a97b599d12e473e2dbc05ae05d27326bfb51c18e6eb4fdaaef583b&#45;&#45;network_automatic&#45;umbrella_default -->
<g id="edge1" class="edge">
<title>container_fcf93bd650a97b599d12e473e2dbc05ae05d27326bfb51c18e6eb4fdaaef583b:ad4a33fbe9b5be56207a5fda846c7f61ca38faeb99e8b950522768f44ff8f8a9&#45;&#45;network_automatic&#45;umbrella_default</title>
<path fill="none" stroke="#1f78b4" d="M1042.33,-861.52C1042.33,-861.52 830.28,-668.89 755.73,-601.17"/>
</g>
<!-- container_2f1a2e763506c149787b4e1dc9a31a88f744f5e2e2f628ae195a65639674d431 -->
<g id="node6" class="node">
<title>container_2f1a2e763506c149787b4e1dc9a31a88f744f5e2e2f628ae195a65639674d431</title>
<polygon fill="#ff9999" stroke="black" points="650.99,-884.2 650.99,-953.2 850.99,-953.2 850.99,-884.2 650.99,-884.2"/>
<text text-anchor="middle" x="750.99" y="-938" font-family="Times,serif" font-size="14.00">automatic&#45;umbrella_api_1</text>
<polyline fill="none" stroke="black" points="650.99,-930.2 850.99,-930.2 "/>
<text text-anchor="middle" x="750.99" y="-915" font-family="Times,serif" font-size="14.00">api</text>
<polyline fill="none" stroke="black" points="650.99,-907.2 850.99,-907.2 "/>
<text text-anchor="middle" x="750.99" y="-892" font-family="Times,serif" font-size="14.00">172.18.0.12</text>
</g>
<!-- container_2f1a2e763506c149787b4e1dc9a31a88f744f5e2e2f628ae195a65639674d431&#45;&#45;network_automatic&#45;umbrella_default -->
<g id="edge2" class="edge">
<title>container_2f1a2e763506c149787b4e1dc9a31a88f744f5e2e2f628ae195a65639674d431:a65342375fa273aca657fa27efb8478cdc2b75d6d8264a71b7268eabb7e027c4&#45;&#45;network_automatic&#45;umbrella_default</title>
<path fill="none" stroke="#1f78b4" d="M750.99,-883.7C750.99,-883.7 736.62,-672.54 731.76,-601.19"/>
</g>
<!-- container_270f27b2c756bfc3cec8388c51ece93f06d3914adad4e04151f0f307b5e5287a -->
<g id="node7" class="node">
<title>container_270f27b2c756bfc3cec8388c51ece93f06d3914adad4e04151f0f307b5e5287a</title>
<polygon fill="#ff9999" stroke="black" points="815.71,-1142.5 815.71,-1211.5 1042.71,-1211.5 1042.71,-1142.5 815.71,-1142.5"/>
<text text-anchor="middle" x="929.21" y="-1196.3" font-family="Times,serif" font-size="14.00">automatic&#45;umbrella_scripts_1</text>
<polyline fill="none" stroke="black" points="815.71,-1188.5 1042.71,-1188.5 "/>
<text text-anchor="middle" x="929.21" y="-1173.3" font-family="Times,serif" font-size="14.00">scripts</text>
<polyline fill="none" stroke="black" points="815.71,-1165.5 1042.71,-1165.5 "/>
<text text-anchor="middle" x="929.21" y="-1150.3" font-family="Times,serif" font-size="14.00">172.18.0.7</text>
</g>
<!-- container_270f27b2c756bfc3cec8388c51ece93f06d3914adad4e04151f0f307b5e5287a&#45;&#45;network_automatic&#45;umbrella_default -->
<g id="edge3" class="edge">
<title>container_270f27b2c756bfc3cec8388c51ece93f06d3914adad4e04151f0f307b5e5287a:e6076464c9c293cecb6644228dd3d26e2ef0ebfe19c86f48eeea7a52e9035563&#45;&#45;network_automatic&#45;umbrella_default</title>
<path fill="none" stroke="#1f78b4" d="M815.21,-1154C815.21,-1154 687.41,-1064.47 647.79,-956.4 600.22,-826.67 682.11,-661.36 716.27,-601.19"/>
</g>
<!-- container_717da7152a73af5d1f216b1ac9654714bf2bae6ee37c3d39a7e49bf708705ccb -->
<g id="node8" class="node">
<title>container_717da7152a73af5d1f216b1ac9654714bf2bae6ee37c3d39a7e49bf708705ccb</title>
<polygon fill="#ff9999" stroke="black" points="386.04,-1121.33 386.04,-1190.33 609.04,-1190.33 609.04,-1121.33 386.04,-1121.33"/>
<text text-anchor="middle" x="497.54" y="-1175.13" font-family="Times,serif" font-size="14.00">automatic&#45;umbrella_flower_1</text>
<polyline fill="none" stroke="black" points="386.04,-1167.33 609.04,-1167.33 "/>
<text text-anchor="middle" x="497.54" y="-1152.13" font-family="Times,serif" font-size="14.00">flower</text>
<polyline fill="none" stroke="black" points="386.04,-1144.33 609.04,-1144.33 "/>
<text text-anchor="middle" x="497.54" y="-1129.13" font-family="Times,serif" font-size="14.00">172.18.0.13</text>
</g>
<!-- container_717da7152a73af5d1f216b1ac9654714bf2bae6ee37c3d39a7e49bf708705ccb&#45;&#45;network_automatic&#45;umbrella_default -->
<g id="edge4" class="edge">
<title>container_717da7152a73af5d1f216b1ac9654714bf2bae6ee37c3d39a7e49bf708705ccb:f5763abe8ba69679f241474515b0b301de8f7a397504a265118c3fae02e20c43&#45;&#45;network_automatic&#45;umbrella_default</title>
<path fill="none" stroke="#1f78b4" d="M609.55,-1132.93C609.55,-1132.93 611.15,-1124.73 612.24,-1118.13 629.66,-1012.99 625.87,-985.29 647.79,-881 669.99,-775.35 707.14,-651.85 722.83,-601.31"/>
</g>
<!-- container_a01bfa73e55b913d22d768116ff13031327784b3b6504c5dcc1eec8ae13f2189 -->
<g id="node9" class="node">
<title>container_a01bfa73e55b913d22d768116ff13031327784b3b6504c5dcc1eec8ae13f2189</title>
<polygon fill="#ff9999" stroke="black" points="198.14,-858.32 198.14,-927.32 395.14,-927.32 395.14,-858.32 198.14,-858.32"/>
<text text-anchor="middle" x="296.64" y="-912.12" font-family="Times,serif" font-size="14.00">automatic&#45;umbrella_db_1</text>
<polyline fill="none" stroke="black" points="198.14,-904.32 395.14,-904.32 "/>
<text text-anchor="middle" x="296.64" y="-889.12" font-family="Times,serif" font-size="14.00">db</text>
<polyline fill="none" stroke="black" points="198.14,-881.32 395.14,-881.32 "/>
<text text-anchor="middle" x="296.64" y="-866.12" font-family="Times,serif" font-size="14.00">172.18.0.3</text>
</g>
<!-- container_a01bfa73e55b913d22d768116ff13031327784b3b6504c5dcc1eec8ae13f2189&#45;&#45;network_automatic&#45;umbrella_default -->
<g id="edge5" class="edge">
<title>container_a01bfa73e55b913d22d768116ff13031327784b3b6504c5dcc1eec8ae13f2189:5a8adecc7ef32178e31cc0fed3025b9642dfe9a52add0ba90d5cedc147abbe92&#45;&#45;network_automatic&#45;umbrella_default</title>
<path fill="none" stroke="#1f78b4" d="M395.64,-869.82C395.64,-869.82 624.53,-670.14 703.65,-601.11"/>
</g>
<!-- container_0e2adc851bcb560db4f7fc7d4b20135c8e011c30020444a04e52d3c49ce80e3d -->
<g id="node10" class="node">
<title>container_0e2adc851bcb560db4f7fc7d4b20135c8e011c30020444a04e52d3c49ce80e3d</title>
<polygon fill="#ff9999" stroke="black" points="324.44,-398.86 324.44,-467.86 539.44,-467.86 539.44,-398.86 324.44,-398.86"/>
<text text-anchor="middle" x="431.94" y="-452.66" font-family="Times,serif" font-size="14.00">automatic&#45;umbrella_redis_1</text>
<polyline fill="none" stroke="black" points="324.44,-444.86 539.44,-444.86 "/>
<text text-anchor="middle" x="431.94" y="-429.66" font-family="Times,serif" font-size="14.00">redis</text>
<polyline fill="none" stroke="black" points="324.44,-421.86 539.44,-421.86 "/>
<text text-anchor="middle" x="431.94" y="-406.66" font-family="Times,serif" font-size="14.00">172.18.0.4</text>
</g>
<!-- container_0e2adc851bcb560db4f7fc7d4b20135c8e011c30020444a04e52d3c49ce80e3d&#45;&#45;network_automatic&#45;umbrella_default -->
<g id="edge6" class="edge">
<title>container_0e2adc851bcb560db4f7fc7d4b20135c8e011c30020444a04e52d3c49ce80e3d:fd37b50e9144b95eb1c3e911b77b42284cb7b336aedc7a85b8787d14ea292365&#45;&#45;network_automatic&#45;umbrella_default</title>
<path fill="none" stroke="#1f78b4" d="M539.94,-410.36C539.94,-410.36 651.46,-508.6 703.73,-554.66"/>
</g>
<!-- container_60771740e55abd39ce619bc106062310a02c5de03be9bdfa7b6e72d8be57744f -->
<g id="node11" class="node">
<title>container_60771740e55abd39ce619bc106062310a02c5de03be9bdfa7b6e72d8be57744f</title>
<polygon fill="#ff9999" stroke="black" points="0,-588.48 0,-657.48 233,-657.48 233,-588.48 0,-588.48"/>
<text text-anchor="middle" x="116.5" y="-642.28" font-family="Times,serif" font-size="14.00">automatic&#45;umbrella_storage_1</text>
<polyline fill="none" stroke="black" points="0,-634.48 233,-634.48 "/>
<text text-anchor="middle" x="116.5" y="-619.28" font-family="Times,serif" font-size="14.00">storage</text>
<polyline fill="none" stroke="black" points="0,-611.48 233,-611.48 "/>
<text text-anchor="middle" x="116.5" y="-596.28" font-family="Times,serif" font-size="14.00">172.18.0.11</text>
</g>
<!-- container_60771740e55abd39ce619bc106062310a02c5de03be9bdfa7b6e72d8be57744f&#45;&#45;network_automatic&#45;umbrella_default -->
<g id="edge7" class="edge">
<title>container_60771740e55abd39ce619bc106062310a02c5de03be9bdfa7b6e72d8be57744f:f681209d4347703218b55d2581dd4db7ccb43d10a300dc7a05576dfb5678b38e&#45;&#45;network_automatic&#45;umbrella_default</title>
<path fill="none" stroke="#1f78b4" d="M233.5,-599.98C233.5,-599.98 477.69,-589.16 623.63,-582.69"/>
</g>
<!-- container_20104966821b866d831976eafc82022ce43419a9a3178fca7fb220bdd7cac22c -->
<g id="node12" class="node">
<title>container_20104966821b866d831976eafc82022ce43419a9a3178fca7fb220bdd7cac22c</title>
<polygon fill="#ff9999" stroke="black" points="83.13,-196.22 83.13,-265.22 308.13,-265.22 308.13,-196.22 83.13,-196.22"/>
<text text-anchor="middle" x="195.63" y="-250.02" font-family="Times,serif" font-size="14.00">automatic&#45;umbrella_pinger_1</text>
<polyline fill="none" stroke="black" points="83.13,-242.22 308.13,-242.22 "/>
<text text-anchor="middle" x="195.63" y="-227.02" font-family="Times,serif" font-size="14.00">pinger</text>
<polyline fill="none" stroke="black" points="83.13,-219.22 308.13,-219.22 "/>
<text text-anchor="middle" x="195.63" y="-204.02" font-family="Times,serif" font-size="14.00">172.18.0.6</text>
</g>
<!-- container_20104966821b866d831976eafc82022ce43419a9a3178fca7fb220bdd7cac22c&#45;&#45;network_automatic&#45;umbrella_default -->
<g id="edge8" class="edge">
<title>container_20104966821b866d831976eafc82022ce43419a9a3178fca7fb220bdd7cac22c:61d331f9b475a27aba2fbe64d13f5a75c7fc231fe355b99590d26480780e1709&#45;&#45;network_automatic&#45;umbrella_default</title>
<path fill="none" stroke="#1f78b4" d="M308.63,-207.72C308.63,-207.72 442.7,-307.3 542.64,-395.66 604.55,-450.39 673.22,-519.45 707.75,-554.79"/>
</g>
<!-- container_33cf36047ec6a5cf079cb6baa7b7ada944343adc496825e94b422e29429b412c -->
<g id="node13" class="node">
<title>container_33cf36047ec6a5cf079cb6baa7b7ada944343adc496825e94b422e29429b412c</title>
<polygon fill="#ff9999" stroke="black" points="999.73,-104.46 999.73,-173.46 1244.73,-173.46 1244.73,-104.46 999.73,-104.46"/>
<text text-anchor="middle" x="1122.23" y="-158.26" font-family="Times,serif" font-size="14.00">automatic&#45;umbrella_rabbitmq_1</text>
<polyline fill="none" stroke="black" points="999.73,-150.46 1244.73,-150.46 "/>
<text text-anchor="middle" x="1122.23" y="-135.26" font-family="Times,serif" font-size="14.00">rabbitmq</text>
<polyline fill="none" stroke="black" points="999.73,-127.46 1244.73,-127.46 "/>
<text text-anchor="middle" x="1122.23" y="-112.26" font-family="Times,serif" font-size="14.00">172.18.0.8</text>
</g>
<!-- container_33cf36047ec6a5cf079cb6baa7b7ada944343adc496825e94b422e29429b412c&#45;&#45;network_automatic&#45;umbrella_default -->
<g id="edge9" class="edge">
<title>container_33cf36047ec6a5cf079cb6baa7b7ada944343adc496825e94b422e29429b412c:baa1dddf6ef200d45abcebff7ec701efb5e8eac5bab04b735c5696fc95e59f8f&#45;&#45;network_automatic&#45;umbrella_default</title>
<path fill="none" stroke="#1f78b4" d="M999.23,-115.96C999.23,-115.96 798.27,-461.05 743.71,-554.74"/>
</g>
<!-- container_dbaa72f86ec01741387a9946d9841674c103b68374611b3516d8856464b25ae0 -->
<g id="node14" class="node">
<title>container_dbaa72f86ec01741387a9946d9841674c103b68374611b3516d8856464b25ae0</title>
<polygon fill="#ff9999" stroke="black" points="692.15,-2.87 692.15,-71.87 941.15,-71.87 941.15,-2.87 692.15,-2.87"/>
<text text-anchor="middle" x="816.65" y="-56.67" font-family="Times,serif" font-size="14.00">automatic&#45;umbrella_calculator_1</text>
<polyline fill="none" stroke="black" points="692.15,-48.87 941.15,-48.87 "/>
<text text-anchor="middle" x="816.65" y="-33.67" font-family="Times,serif" font-size="14.00">calculator</text>
<polyline fill="none" stroke="black" points="692.15,-25.87 941.15,-25.87 "/>
<text text-anchor="middle" x="816.65" y="-10.67" font-family="Times,serif" font-size="14.00">172.18.0.5</text>
</g>
<!-- container_dbaa72f86ec01741387a9946d9841674c103b68374611b3516d8856464b25ae0&#45;&#45;network_automatic&#45;umbrella_default -->
<g id="edge10" class="edge">
<title>container_dbaa72f86ec01741387a9946d9841674c103b68374611b3516d8856464b25ae0:bdc1849c22da0db3c9dd41cacde4e56569195f88573e4872e05afd30127a6d7c&#45;&#45;network_automatic&#45;umbrella_default</title>
<path fill="none" stroke="#1f78b4" d="M691.64,-14.47C691.64,-14.47 688.45,-48.11 688.95,-75.07 692.43,-260.75 718.42,-483.78 727.26,-554.96"/>
</g>
<!-- container_d83761099a9c87eb41c2bdd6b36d2871181f7ad51dd447e0884b7512d0a179fa -->
<g id="node15" class="node">
<title>container_d83761099a9c87eb41c2bdd6b36d2871181f7ad51dd447e0884b7512d0a179fa</title>
<polygon fill="#ff9999" stroke="black" points="397.41,-0.5 397.41,-69.5 610.41,-69.5 610.41,-0.5 397.41,-0.5"/>
<text text-anchor="middle" x="503.91" y="-54.3" font-family="Times,serif" font-size="14.00">automatic&#45;umbrella_hello_1</text>
<polyline fill="none" stroke="black" points="397.41,-46.5 610.41,-46.5 "/>
<text text-anchor="middle" x="503.91" y="-31.3" font-family="Times,serif" font-size="14.00">hello</text>
<polyline fill="none" stroke="black" points="397.41,-23.5 610.41,-23.5 "/>
<text text-anchor="middle" x="503.91" y="-8.3" font-family="Times,serif" font-size="14.00">172.18.0.9</text>
</g>
<!-- container_d83761099a9c87eb41c2bdd6b36d2871181f7ad51dd447e0884b7512d0a179fa&#45;&#45;network_automatic&#45;umbrella_default -->
<g id="edge11" class="edge">
<title>container_d83761099a9c87eb41c2bdd6b36d2871181f7ad51dd447e0884b7512d0a179fa:7d5dce89ca4d7e578d083c984ef4b9dfc2deb77f33eb44df0f8fa2818324d704&#45;&#45;network_automatic&#45;umbrella_default</title>
<path fill="none" stroke="#1f78b4" d="M610.91,-12C610.91,-12 702.84,-448.22 725.28,-554.72"/>
</g>
<!-- container_4e9a228af09b84807486da8f79c7d77bebbc69519994c4beb9da37ca7459ea81 -->
<g id="node16" class="node">
<title>container_4e9a228af09b84807486da8f79c7d77bebbc69519994c4beb9da37ca7459ea81</title>
<polygon fill="#ff9999" stroke="black" points="1325.05,-542.44 1325.05,-611.44 1594.05,-611.44 1594.05,-542.44 1325.05,-542.44"/>
<text text-anchor="middle" x="1459.55" y="-596.24" font-family="Times,serif" font-size="14.00">automatic&#45;umbrella_jaeger&#45;agent_1</text>
<polyline fill="none" stroke="black" points="1325.05,-588.44 1594.05,-588.44 "/>
<text text-anchor="middle" x="1392.05" y="-573.24" font-family="Times,serif" font-size="14.00">jaeger&#45;agent</text>
<polyline fill="none" stroke="black" points="1325.05,-565.44 1459.05,-565.44 "/>
<text text-anchor="middle" x="1392.05" y="-550.24" font-family="Times,serif" font-size="14.00">172.18.0.2</text>
<polyline fill="none" stroke="black" points="1459.05,-542.44 1459.05,-588.44 "/>
<text text-anchor="middle" x="1526.55" y="-573.24" font-family="Times,serif" font-size="14.00">jaeger&#45;agent</text>
<polyline fill="none" stroke="black" points="1459.05,-565.44 1594.05,-565.44 "/>
<text text-anchor="middle" x="1526.55" y="-550.24" font-family="Times,serif" font-size="14.00">172.19.0.3</text>
</g>
<!-- container_4e9a228af09b84807486da8f79c7d77bebbc69519994c4beb9da37ca7459ea81&#45;&#45;network_automatic&#45;umbrella_default -->
<g id="edge12" class="edge">
<title>container_4e9a228af09b84807486da8f79c7d77bebbc69519994c4beb9da37ca7459ea81:110f858ee47df2405db853d26d79a9f134e7bafccd924282ec1d0bc5d2e16427&#45;&#45;network_automatic&#45;umbrella_default</title>
<path fill="none" stroke="#1f78b4" d="M1324.55,-553.94C1324.55,-553.94 1007.83,-566.74 836.79,-573.65"/>
</g>
<!-- container_4e9a228af09b84807486da8f79c7d77bebbc69519994c4beb9da37ca7459ea81&#45;&#45;network_automatic&#45;umbrella_elastic&#45;jaeger -->
<g id="edge13" class="edge">
<title>container_4e9a228af09b84807486da8f79c7d77bebbc69519994c4beb9da37ca7459ea81:28107b76b2be8bcb6d705e587935f958f08ac6414315f7c387a80e5e71382a1c&#45;&#45;network_automatic&#45;umbrella_elastic&#45;jaeger</title>
<path fill="none" stroke="#33a02c" d="M1594.55,-553.94C1594.55,-553.94 1738.18,-565.38 1849.97,-574.29"/>
</g>
<!-- container_30fa230e26ca8c70a3c41a6c691d2c82cf33f51cc7974ef16d3d6f8b535d78f8 -->
<g id="node17" class="node">
<title>container_30fa230e26ca8c70a3c41a6c691d2c82cf33f51cc7974ef16d3d6f8b535d78f8</title>
<polygon fill="#ff9999" stroke="black" points="984.65,-438.61 984.65,-507.61 1202.65,-507.61 1202.65,-438.61 984.65,-438.61"/>
<text text-anchor="middle" x="1093.65" y="-492.41" font-family="Times,serif" font-size="14.00">automatic&#45;umbrella_minio_1</text>
<polyline fill="none" stroke="black" points="984.65,-484.61 1202.65,-484.61 "/>
<text text-anchor="middle" x="1093.65" y="-469.41" font-family="Times,serif" font-size="14.00">minio</text>
<polyline fill="none" stroke="black" points="984.65,-461.61 1202.65,-461.61 "/>
<text text-anchor="middle" x="1093.65" y="-446.41" font-family="Times,serif" font-size="14.00">172.18.0.10</text>
</g>
<!-- container_30fa230e26ca8c70a3c41a6c691d2c82cf33f51cc7974ef16d3d6f8b535d78f8&#45;&#45;network_automatic&#45;umbrella_default -->
<g id="edge14" class="edge">
<title>container_30fa230e26ca8c70a3c41a6c691d2c82cf33f51cc7974ef16d3d6f8b535d78f8:9c078390d2af584f5c1946dd5e0cc79fda15c459bdaccc7a385e9c9f06c97ee9&#45;&#45;network_automatic&#45;umbrella_default</title>
<path fill="none" stroke="#1f78b4" d="M984.65,-450.11C984.65,-450.11 911.56,-519.46 839.88,-551.76 837.47,-552.85 835.02,-553.89 832.52,-554.9"/>
</g>
<!-- container_f70c8e18df7a42b43a4cbf159ed27fe4a15b471a34025b9db4211f172e8d7b34 -->
<g id="node18" class="node">
<title>container_f70c8e18df7a42b43a4cbf159ed27fe4a15b471a34025b9db4211f172e8d7b34</title>
<polygon fill="#ff9999" stroke="black" points="2254.15,-509.71 2254.15,-578.71 2526.15,-578.71 2526.15,-509.71 2254.15,-509.71"/>
<text text-anchor="middle" x="2390.15" y="-563.51" font-family="Times,serif" font-size="14.00">automatic&#45;umbrella_elasticsearch_1</text>
<polyline fill="none" stroke="black" points="2254.15,-555.71 2526.15,-555.71 "/>
<text text-anchor="middle" x="2390.15" y="-540.51" font-family="Times,serif" font-size="14.00">elasticsearch</text>
<polyline fill="none" stroke="black" points="2254.15,-532.71 2526.15,-532.71 "/>
<text text-anchor="middle" x="2390.15" y="-517.51" font-family="Times,serif" font-size="14.00">172.19.0.2</text>
</g>
<!-- container_f70c8e18df7a42b43a4cbf159ed27fe4a15b471a34025b9db4211f172e8d7b34&#45;&#45;network_automatic&#45;umbrella_elastic&#45;jaeger -->
<g id="edge15" class="edge">
<title>container_f70c8e18df7a42b43a4cbf159ed27fe4a15b471a34025b9db4211f172e8d7b34:17e4e90ab6c01ffe88039e415582378063bde9479243d72bf6fdc8a213227b3b&#45;&#45;network_automatic&#45;umbrella_elastic&#45;jaeger</title>
<path fill="none" stroke="#33a02c" d="M2254.15,-521.21C2254.15,-521.21 2157.96,-543.42 2079.42,-561.55"/>
</g>
</g>
</svg>
